<?xml version="1.0" encoding="utf-8"?>
<!-- Generator: Adobe Illustrator 17.0.0, SVG Export Plug-In . SVG Version: 6.00 Build 0)  -->
<!DOCTYPE svg PUBLIC "-//W3C//DTD SVG 1.1//EN" "http://www.w3.org/Graphics/SVG/1.1/DTD/svg11.dtd">
<svg version="1.1" id="Capa_1" xmlns="http://www.w3.org/2000/svg" xmlns:xlink="http://www.w3.org/1999/xlink" x="0px" y="0px"
	 width="2315.553px" height="568px" viewBox="0 0 2315.553 568" enable-background="new 0 0 2315.553 568" xml:space="preserve">
<g>
	<g>
		<path fill="#FFFFFF" d="M1445.369,201.096l-48.646,97.242h-80.846L1417.87,107.1c0,0,16.989-24.362,53.716-23.466
			c36.409,0.96,54.868,19.739,56.195,29.306l3.983,64.081l57.795-73.648c0,0,13.661-16.348,45.813-16.348
			c31.849,0,47.03,25.018,47.526,31.018l-17.852,180.296h-74.992l4.447-91.931l-57.619,77.63c0,0-18.571,20.556-48.837,20.172
			c-30.377-0.384-34.872-21.5-34.872-21.5L1445.369,201.096z"/>
		<path fill="#FFFFFF" d="M1677.161,298.339l157.085-190.453c0,0,16.429-23.291,49.781-23.291h71.968v213.745h-175.802
			l32.985-43.511h58.18v-82.846L1770.132,297.78L1677.161,298.339z"/>
		<path fill="#FFFFFF" d="M1968.19,297.776l75.855-212.705l134.209-0.48c0,0,54.245,2.992,59.012,61.363
			c4.943,63.507-67.776,68.961-67.776,68.961l20.555,82.861h-74.911l-24.73-124.82l58.083-1.472c0,0,17.325-4.016,16.445-21.467
			c-0.448-9.63-8.51-8.239-8.51-8.239h-59.203l-51.381,155.998H1968.19z"/>
		<path fill="#FFFFFF" d="M76.045,298.182h94.875l101.386-131.346v82.622H219.23l-36.793,48.325h170.507l0.336-211.089h-72.929
			c0,0-27.706-2.56-46.726,21.419C208.896,139.513,76.045,298.182,76.045,298.182"/>
		<path fill="#FFFFFF" d="M367.528,298.182h76.639l33.4-108.008l75.439,95.867c0,0,10.03,15.804,40.151,15.804
			c33.913,0,38.904-28.89,38.904-28.89L694.768,86.23h-77.567l-37.064,110.839l-74.128-99.723c0,0-11.277-14.076-35.048-14.076
			c-31.817,0-37.991,18.987-37.991,18.987L367.528,298.182z"/>
		<path fill="#FFFFFF" d="M860.438,87.024c0,0,70.321,1.729,56.836,98.298c-15.741,113.287-110.136,112.855-110.136,112.855H636.759
			l72.433-210.945L860.438,87.024z M764.3,143.748l-34.377,104.761l50.661,0.543c0,0,48.693-8.222,62.21-56.115
			c14.061-49.429-21.083-49.189-21.083-49.189H764.3z"/>
		<path fill="#FFFFFF" d="M1161.212,88.37l-17.099,54.42h-119.734l-7.742,25.771h116.102l-16.748,50.18H992.337l-9.854,30.713
			h125.796l-15.645,48.326H930.927c0,0-31.209-2.64-19.9-33.897l51.957-152.622c0,0,4.08-22.891,24.842-22.891H1161.212z"/>
		<path fill="#FFFFFF" d="M1111.849,297.776l16.716-47.381h120.965l-74.735-79.151c0,0-21.388-29.21-5.167-54.532
			c16.444-25.131,38.024-29.066,38.024-29.066H1364.8l-13.085,54.388h-99.353l64.978,70.769c0,0,15.853,24.394,1.344,56.42
			c-14.413,32.089-34.537,28.553-34.537,28.553H1111.849z"/>
		<path fill="#FFFFFF" d="M1280.861,349.544c-2.559-1.296-5.359-2.367-8.382-3.199l-0.608-0.16c-4.159-0.688-8.287-1.2-12.35-1.535
			c-4.239-0.593-8.893-0.88-14.188-0.88h-75.791c-5.662,0-11.022,0-16.364,0.319c-2.255,0.192-4.431,0.416-6.591,0.608
			c-2.976,0.304-5.886,0.576-8.799,0.8l-0.959,0.16c-19.084,4.591-32.218,12.878-40.12,25.29l-32.488,84.221l-65.633,0.208
			l-79.695-0.177c-3.056-0.127-5.071-0.336-6.334-0.56l29.37-75.871c4.541-3.758,10.973-5.678,19.131-5.678
			c0.928,0,1.903,0.016,3.214,0.08h115.91l11.822-29.401H961.428c-5.408,0-10.975,0-16.269,0.319
			c-2.096,0.192-4.192,0.401-6.239,0.592c-3.104,0.304-6.111,0.593-9.134,0.816l-0.96,0.16
			c-19.18,4.591-32.313,12.878-40.119,25.322l-29.257,80.142l-0.225,0.784c-1.104,5.119,0.192,10.462,3.92,15.869
			c7.79,11.421,26.378,16.955,56.884,16.955h132.754h2.367h54.26l21.979-57.714h95.963l-21.019,57.714h57.619l28.826-85.324
			C1306.231,363.492,1280.973,349.592,1280.861,349.544 M1142.075,396.974l4.207-9.693c7.007-15.293,25.435-13.982,25.435-13.982
			l7.934-0.127h41.831c3.311,0.016,26.634,0.751,19.245,18.284l-1.92,5.519H1142.075z"/>
		<path fill="#FFFFFF" d="M2057.28,373.087c0.959,0,129.475-0.591,129.475-0.591l10.397-28.73h-139.409
			c-5.551,0-10.798,0-16.365,0.336c-2.175,0.175-4.302,0.384-6.382,0.591c-3.055,0.289-6.046,0.576-9.214,0.817
			c-21.003,2.222-34.872,11.101-41.302,26.537l-12.078,31.177c-2.319,6.798-1.952,12.398,1.104,16.685
			c3.407,4.799,9.566,7.102,18.86,7.102h123.445l-8.271,24.171l-0.752,1.136c-0.687,1.359-4.222,2.959-11.917,3.071l-159.149-0.224
			l-11.853,29.561h169.578c42.183,0,64.69-9.134,68.737-27.93l12.429-36.263c2.288-6.415,1.936-11.79-1.04-16.013
			c-3.583-5.086-10.302-7.551-20.571-7.551h-122.661l7.726-18.075C2042.851,374.991,2049.169,373.087,2057.28,373.087"/>
		<path fill="#FFFFFF" d="M1956.452,353.913c-4.208-3.376-9.31-5.951-15.245-7.63l-0.64-0.145
			c-4.048-0.687-8.319-1.216-12.413-1.552c-4.015-0.591-8.798-0.863-14.237-0.863h-75.775c-5.663,0-10.974,0-16.573,0.304
			l-4.75,0.464c-3.488,0.336-6.991,0.705-10.415,0.944l-0.943,0.16c-19.085,4.575-32.218,12.861-40.12,25.29l-43.814,113.783h56.547
			l21.883-57.716h95.995l-21.131,57.716h57.7l30.377-89.468c0,0-9.805,24.122,0.16-0.464l1.648-4.863
			C1970.625,368.741,1957.349,354.824,1956.452,353.913 M1810.708,396.911l3.551-8.382l0.048,0.016
			c6.511-16.813,26.106-15.357,26.106-15.357l4.703-0.096h44.854l-0.049,0.096c0,0,22.795,0.08,20.828,14.397l-3.263,9.326H1810.708
			z"/>
		<path fill="#FFFFFF" d="M1519.624,363.028c-5.054-7.981-13.021-13.74-23.291-16.683l-0.671-0.16
			c-4.368-0.737-8.318-1.232-12.382-1.535c-4.062-0.593-8.845-0.88-14.204-0.88h-138.69l-50.436,140.96h54.627l20.507-57.714h65.137
			l20.524,57.714h54.228l-20.46-57.235h7.503c17.02-0.256,27.897-5.646,32.313-16.028l6.238-21.644
			c0.017-0.064,0.017-0.112,0.032-0.176l0.944-3.216C1524.663,373.843,1520.807,365.252,1519.624,363.028 M1452.711,396.974h-86.925
			l7.663-18.028c2.096-5.407,8.893-5.743,8.893-5.743l1.841-0.031h72c0.751,0.048,1.503,0.08,2.239,0.08
			c3.104,0.08,6.078,0.064,8.558,0.656c1.92,0.735,3.12,2.127,2.032,4.751l-3.967,11.917
			C1464.404,392.335,1462.677,396.974,1452.711,396.974"/>
		<path fill="#FFFFFF" d="M1615.283,373.087c0.928,0,1.871,0.017,3.167,0.081h124.5l12.27-29.403h-139.505
			c-5.342,0-10.845,0-16.252,0.336c-2.128,0.175-4.192,0.384-6.222,0.576c-3.136,0.287-6.207,0.591-9.342,0.816l-0.976,0.161
			c-12.908,3.151-23.275,8.206-31.016,15.004c-2.864,2.752-8.622,9.263-12.734,20.604l-25.466,69.856l-0.224,0.912
			c-1.088,5.263,0.288,10.59,3.903,15.693c7.615,11.453,26.186,17.005,56.788,17.005h77.167c42.262,0,64.753-9.278,68.737-28.377
			l21.787-59.38h-100.043l-12.253,30.522h46.038l-10.382,24.794c-1.056,1.472-4.8,2.991-12.35,3.104l-79.262-0.192
			c-3.183-0.144-5.247-0.4-6.559-0.64l29.097-75.775C1600.742,375.007,1607.173,373.087,1615.283,373.087"/>
	</g>
</g>
</svg>
